<mxfile host="app.diagrams.net" modified="2023-11-24T12:21:51.268Z" agent="Mozilla/5.0 (Windows NT 10.0; Win64; x64) AppleWebKit/537.36 (KHTML, like Gecko) Chrome/119.0.0.0 Safari/537.36" etag="WR1h1R7Rd9AaHOpBRgaC" version="21.4.0" type="device">
  <diagram name="Page-1" id="YlNRZcPPq_w7fQBo6mWg">
    <mxGraphModel dx="1728" dy="950" grid="1" gridSize="10" guides="1" tooltips="1" connect="1" arrows="1" fold="1" page="1" pageScale="1" pageWidth="850" pageHeight="1100" math="0" shadow="0">
      <root>
        <mxCell id="0" />
        <mxCell id="1" parent="0" />
        <mxCell id="x3VdnL5lBAI4p52LaBCT-47" value="" style="endArrow=classic;html=1;rounded=0;exitX=0.031;exitY=0.698;exitDx=0;exitDy=0;exitPerimeter=0;entryX=1;entryY=0.5;entryDx=0;entryDy=0;" edge="1" parent="1" source="x3VdnL5lBAI4p52LaBCT-10" target="x3VdnL5lBAI4p52LaBCT-46">
          <mxGeometry width="50" height="50" relative="1" as="geometry">
            <mxPoint x="380" y="540" as="sourcePoint" />
            <mxPoint x="430" y="490" as="targetPoint" />
          </mxGeometry>
        </mxCell>
        <mxCell id="x3VdnL5lBAI4p52LaBCT-44" value="" style="endArrow=classic;html=1;rounded=0;exitX=0.573;exitY=1.004;exitDx=0;exitDy=0;exitPerimeter=0;entryX=0.5;entryY=0;entryDx=0;entryDy=0;" edge="1" parent="1" source="x3VdnL5lBAI4p52LaBCT-10" target="x3VdnL5lBAI4p52LaBCT-40">
          <mxGeometry width="50" height="50" relative="1" as="geometry">
            <mxPoint x="380" y="500" as="sourcePoint" />
            <mxPoint x="430" y="450" as="targetPoint" />
          </mxGeometry>
        </mxCell>
        <mxCell id="x3VdnL5lBAI4p52LaBCT-43" style="rounded=0;orthogonalLoop=1;jettySize=auto;html=1;entryX=0.5;entryY=0;entryDx=0;entryDy=0;exitX=0.289;exitY=0.956;exitDx=0;exitDy=0;exitPerimeter=0;" edge="1" parent="1" source="x3VdnL5lBAI4p52LaBCT-10" target="x3VdnL5lBAI4p52LaBCT-39">
          <mxGeometry relative="1" as="geometry">
            <mxPoint x="425" y="450" as="sourcePoint" />
          </mxGeometry>
        </mxCell>
        <mxCell id="x3VdnL5lBAI4p52LaBCT-41" style="rounded=0;orthogonalLoop=1;jettySize=auto;html=1;exitX=0;exitY=1;exitDx=0;exitDy=0;entryX=0.5;entryY=0;entryDx=0;entryDy=0;" edge="1" parent="1" source="x3VdnL5lBAI4p52LaBCT-10" target="x3VdnL5lBAI4p52LaBCT-38">
          <mxGeometry relative="1" as="geometry" />
        </mxCell>
        <mxCell id="x3VdnL5lBAI4p52LaBCT-36" style="rounded=0;orthogonalLoop=1;jettySize=auto;html=1;exitX=1;exitY=1;exitDx=0;exitDy=0;entryX=0;entryY=0.5;entryDx=0;entryDy=0;" edge="1" parent="1" source="x3VdnL5lBAI4p52LaBCT-10" target="x3VdnL5lBAI4p52LaBCT-32">
          <mxGeometry relative="1" as="geometry" />
        </mxCell>
        <mxCell id="x3VdnL5lBAI4p52LaBCT-26" style="rounded=0;orthogonalLoop=1;jettySize=auto;html=1;exitX=0;exitY=0.5;exitDx=0;exitDy=0;entryX=1;entryY=0.5;entryDx=0;entryDy=0;" edge="1" parent="1" source="x3VdnL5lBAI4p52LaBCT-10" target="x3VdnL5lBAI4p52LaBCT-23">
          <mxGeometry relative="1" as="geometry">
            <mxPoint x="210" y="470" as="targetPoint" />
          </mxGeometry>
        </mxCell>
        <mxCell id="x3VdnL5lBAI4p52LaBCT-25" style="rounded=0;orthogonalLoop=1;jettySize=auto;html=1;exitX=1;exitY=0.5;exitDx=0;exitDy=0;entryX=0;entryY=0.5;entryDx=0;entryDy=0;" edge="1" parent="1" source="x3VdnL5lBAI4p52LaBCT-10" target="x3VdnL5lBAI4p52LaBCT-13">
          <mxGeometry relative="1" as="geometry" />
        </mxCell>
        <mxCell id="x3VdnL5lBAI4p52LaBCT-24" style="rounded=0;orthogonalLoop=1;jettySize=auto;html=1;exitX=1;exitY=0;exitDx=0;exitDy=0;entryX=0.5;entryY=1;entryDx=0;entryDy=0;" edge="1" parent="1" source="x3VdnL5lBAI4p52LaBCT-10" target="x3VdnL5lBAI4p52LaBCT-7">
          <mxGeometry relative="1" as="geometry" />
        </mxCell>
        <mxCell id="x3VdnL5lBAI4p52LaBCT-5" value="" style="group" vertex="1" connectable="0" parent="1">
          <mxGeometry x="240" y="130" width="90" height="90" as="geometry" />
        </mxCell>
        <mxCell id="x3VdnL5lBAI4p52LaBCT-2" value="Paradigm" style="ellipse;whiteSpace=wrap;html=1;aspect=fixed;fillColor=#0000FF;strokeColor=#000000;fontColor=#ffffff;strokeWidth=3;" vertex="1" parent="x3VdnL5lBAI4p52LaBCT-5">
          <mxGeometry width="90" height="90" as="geometry" />
        </mxCell>
        <mxCell id="x3VdnL5lBAI4p52LaBCT-4" value="&lt;font style=&quot;font-size: 8px;&quot;&gt;Class&lt;/font&gt;" style="rounded=0;whiteSpace=wrap;html=1;fillColor=none;" vertex="1" parent="x3VdnL5lBAI4p52LaBCT-5">
          <mxGeometry x="25" y="60" width="40" height="10" as="geometry" />
        </mxCell>
        <mxCell id="x3VdnL5lBAI4p52LaBCT-6" value="" style="group" vertex="1" connectable="0" parent="1">
          <mxGeometry x="460" y="170" width="90" height="90" as="geometry" />
        </mxCell>
        <mxCell id="x3VdnL5lBAI4p52LaBCT-7" value="Computational&lt;br&gt;Class" style="ellipse;whiteSpace=wrap;html=1;aspect=fixed;fillColor=#0000FF;strokeColor=#000000;fontColor=#ffffff;strokeWidth=3;" vertex="1" parent="x3VdnL5lBAI4p52LaBCT-6">
          <mxGeometry width="90" height="90" as="geometry" />
        </mxCell>
        <mxCell id="x3VdnL5lBAI4p52LaBCT-8" value="&lt;font style=&quot;font-size: 8px;&quot;&gt;Class&lt;/font&gt;" style="rounded=0;whiteSpace=wrap;html=1;fillColor=none;" vertex="1" parent="x3VdnL5lBAI4p52LaBCT-6">
          <mxGeometry x="25" y="60" width="40" height="10" as="geometry" />
        </mxCell>
        <mxCell id="x3VdnL5lBAI4p52LaBCT-9" value="" style="group" vertex="1" connectable="0" parent="1">
          <mxGeometry x="380" y="360" width="90" height="90" as="geometry" />
        </mxCell>
        <mxCell id="x3VdnL5lBAI4p52LaBCT-10" value="Programming&lt;br&gt;Language" style="ellipse;whiteSpace=wrap;html=1;aspect=fixed;fillColor=#0000FF;strokeColor=#000000;fontColor=#ffffff;strokeWidth=3;" vertex="1" parent="x3VdnL5lBAI4p52LaBCT-9">
          <mxGeometry width="90" height="90" as="geometry" />
        </mxCell>
        <mxCell id="x3VdnL5lBAI4p52LaBCT-11" value="&lt;font style=&quot;font-size: 8px;&quot;&gt;Class&lt;/font&gt;" style="rounded=0;whiteSpace=wrap;html=1;fillColor=none;" vertex="1" parent="x3VdnL5lBAI4p52LaBCT-9">
          <mxGeometry x="25" y="60" width="40" height="10" as="geometry" />
        </mxCell>
        <mxCell id="x3VdnL5lBAI4p52LaBCT-12" value="" style="group" vertex="1" connectable="0" parent="1">
          <mxGeometry x="680" y="280" width="90" height="90" as="geometry" />
        </mxCell>
        <mxCell id="x3VdnL5lBAI4p52LaBCT-13" value="Usability" style="ellipse;whiteSpace=wrap;html=1;aspect=fixed;fillColor=#0000FF;strokeColor=#000000;fontColor=#ffffff;strokeWidth=3;" vertex="1" parent="x3VdnL5lBAI4p52LaBCT-12">
          <mxGeometry width="90" height="90" as="geometry" />
        </mxCell>
        <mxCell id="x3VdnL5lBAI4p52LaBCT-14" value="&lt;font style=&quot;font-size: 8px;&quot;&gt;Class&lt;/font&gt;" style="rounded=0;whiteSpace=wrap;html=1;fillColor=none;" vertex="1" parent="x3VdnL5lBAI4p52LaBCT-12">
          <mxGeometry x="25" y="60" width="40" height="10" as="geometry" />
        </mxCell>
        <mxCell id="x3VdnL5lBAI4p52LaBCT-15" value="" style="endArrow=classic;html=1;rounded=0;entryX=1;entryY=1;entryDx=0;entryDy=0;exitX=0;exitY=0;exitDx=0;exitDy=0;" edge="1" parent="1" source="x3VdnL5lBAI4p52LaBCT-10" target="x3VdnL5lBAI4p52LaBCT-2">
          <mxGeometry width="50" height="50" relative="1" as="geometry">
            <mxPoint x="380" y="380" as="sourcePoint" />
            <mxPoint x="430" y="330" as="targetPoint" />
          </mxGeometry>
        </mxCell>
        <mxCell id="x3VdnL5lBAI4p52LaBCT-16" value="&lt;font style=&quot;font-size: 8px;&quot;&gt;hasInterpreter&lt;/font&gt;" style="rounded=0;whiteSpace=wrap;html=1;align=center;fillColor=#dae8fc;strokeColor=#6c8ebf;" vertex="1" parent="1">
          <mxGeometry x="340" y="538" width="80" height="12" as="geometry" />
        </mxCell>
        <mxCell id="x3VdnL5lBAI4p52LaBCT-17" value="&lt;font style=&quot;font-size: 8px;&quot;&gt;hasComputationalClass&lt;/font&gt;" style="rounded=0;whiteSpace=wrap;html=1;align=center;fillColor=#dae8fc;strokeColor=#6c8ebf;" vertex="1" parent="1">
          <mxGeometry x="445" y="300" width="90" height="12" as="geometry" />
        </mxCell>
        <mxCell id="x3VdnL5lBAI4p52LaBCT-18" value="&lt;font style=&quot;font-size: 8px;&quot;&gt;hasUsability&lt;/font&gt;" style="rounded=0;whiteSpace=wrap;html=1;align=center;fillColor=#dae8fc;strokeColor=#6c8ebf;" vertex="1" parent="1">
          <mxGeometry x="530" y="360" width="80" height="12" as="geometry" />
        </mxCell>
        <mxCell id="x3VdnL5lBAI4p52LaBCT-19" value="&lt;font style=&quot;font-size: 8px;&quot;&gt;hasParadigm&lt;/font&gt;" style="rounded=0;whiteSpace=wrap;html=1;align=center;fillColor=#dae8fc;strokeColor=#6c8ebf;" vertex="1" parent="1">
          <mxGeometry x="310" y="288" width="80" height="12" as="geometry" />
        </mxCell>
        <mxCell id="x3VdnL5lBAI4p52LaBCT-20" value="&lt;font style=&quot;font-size: 8px;&quot;&gt;hasCompiler&lt;/font&gt;" style="rounded=0;whiteSpace=wrap;html=1;align=center;fillColor=#dae8fc;strokeColor=#6c8ebf;" vertex="1" parent="1">
          <mxGeometry x="440" y="538" width="80" height="12" as="geometry" />
        </mxCell>
        <mxCell id="x3VdnL5lBAI4p52LaBCT-21" value="&lt;font style=&quot;font-size: 8px;&quot;&gt;hasName&lt;/font&gt;" style="rounded=0;whiteSpace=wrap;html=1;align=center;fillColor=#dae8fc;strokeColor=#6c8ebf;" vertex="1" parent="1">
          <mxGeometry x="170" y="372" width="80" height="12" as="geometry" />
        </mxCell>
        <mxCell id="x3VdnL5lBAI4p52LaBCT-23" value="&lt;font style=&quot;font-size: 8px;&quot;&gt;LIteral&lt;/font&gt;" style="rounded=0;whiteSpace=wrap;html=1;align=center;fillColor=#FFC300;strokeColor=#000000;dashed=1;" vertex="1" parent="1">
          <mxGeometry x="40" y="360" width="80" height="12" as="geometry" />
        </mxCell>
        <mxCell id="x3VdnL5lBAI4p52LaBCT-29" value="&lt;font style=&quot;font-size: 8px;&quot;&gt;belongsToCategory&lt;/font&gt;" style="rounded=0;whiteSpace=wrap;html=1;align=center;fillColor=#dae8fc;strokeColor=#6c8ebf;" vertex="1" parent="1">
          <mxGeometry x="510" y="462" width="80" height="12" as="geometry" />
        </mxCell>
        <mxCell id="x3VdnL5lBAI4p52LaBCT-30" value="&lt;font style=&quot;font-size: 8px;&quot;&gt;hasApplication&lt;/font&gt;" style="rounded=0;whiteSpace=wrap;html=1;align=center;fillColor=#dae8fc;strokeColor=#6c8ebf;" vertex="1" parent="1">
          <mxGeometry x="250" y="500" width="80" height="12" as="geometry" />
        </mxCell>
        <mxCell id="x3VdnL5lBAI4p52LaBCT-31" value="" style="group" vertex="1" connectable="0" parent="1">
          <mxGeometry x="680" y="470" width="90" height="90" as="geometry" />
        </mxCell>
        <mxCell id="x3VdnL5lBAI4p52LaBCT-32" value="Category" style="ellipse;whiteSpace=wrap;html=1;aspect=fixed;fillColor=#0000FF;strokeColor=#000000;fontColor=#ffffff;strokeWidth=3;" vertex="1" parent="x3VdnL5lBAI4p52LaBCT-31">
          <mxGeometry width="90" height="90" as="geometry" />
        </mxCell>
        <mxCell id="x3VdnL5lBAI4p52LaBCT-33" value="&lt;font style=&quot;font-size: 8px;&quot;&gt;Class&lt;/font&gt;" style="rounded=0;whiteSpace=wrap;html=1;fillColor=none;" vertex="1" parent="x3VdnL5lBAI4p52LaBCT-31">
          <mxGeometry x="25" y="60" width="40" height="10" as="geometry" />
        </mxCell>
        <mxCell id="x3VdnL5lBAI4p52LaBCT-38" value="&lt;font style=&quot;font-size: 8px;&quot;&gt;LIteral&lt;/font&gt;" style="rounded=0;whiteSpace=wrap;html=1;align=center;fillColor=#FFC300;strokeColor=#000000;dashed=1;" vertex="1" parent="1">
          <mxGeometry x="150" y="590" width="80" height="12" as="geometry" />
        </mxCell>
        <mxCell id="x3VdnL5lBAI4p52LaBCT-39" value="&lt;font style=&quot;font-size: 8px;&quot;&gt;LIteral&lt;/font&gt;" style="rounded=0;whiteSpace=wrap;html=1;align=center;fillColor=#FFC300;strokeColor=#000000;dashed=1;" vertex="1" parent="1">
          <mxGeometry x="300" y="612" width="80" height="12" as="geometry" />
        </mxCell>
        <mxCell id="x3VdnL5lBAI4p52LaBCT-40" value="&lt;font style=&quot;font-size: 8px;&quot;&gt;LIteral&lt;/font&gt;" style="rounded=0;whiteSpace=wrap;html=1;align=center;fillColor=#FFC300;strokeColor=#000000;dashed=1;" vertex="1" parent="1">
          <mxGeometry x="450" y="612" width="80" height="12" as="geometry" />
        </mxCell>
        <mxCell id="x3VdnL5lBAI4p52LaBCT-45" value="&lt;font style=&quot;font-size: 8px;&quot;&gt;hasYearOfCreation&lt;/font&gt;" style="rounded=0;whiteSpace=wrap;html=1;align=center;fillColor=#dae8fc;strokeColor=#6c8ebf;" vertex="1" parent="1">
          <mxGeometry x="220" y="430" width="80" height="12" as="geometry" />
        </mxCell>
        <mxCell id="x3VdnL5lBAI4p52LaBCT-46" value="&lt;font style=&quot;font-size: 8px;&quot;&gt;LIteral&lt;/font&gt;" style="rounded=0;whiteSpace=wrap;html=1;align=center;fillColor=#FFC300;strokeColor=#000000;dashed=1;" vertex="1" parent="1">
          <mxGeometry x="60" y="450" width="80" height="12" as="geometry" />
        </mxCell>
      </root>
    </mxGraphModel>
  </diagram>
</mxfile>
